<svg width="43" height="32" viewBox="0 0 43 32" fill="none" xmlns="http://www.w3.org/2000/svg">
<path d="M39.8636 6.45455H31.4091L26.9091 1H16L11.5 6.45455H3.04545C2.50297 6.45455 1.9827 6.67005 1.5991 7.05365C1.2155 7.43724 1 7.95751 1 8.5V28.9545C1 29.497 1.2155 30.0173 1.5991 30.4009C1.9827 30.7845 2.50297 31 3.04545 31H39.8636C40.4061 31 40.9264 30.7845 41.31 30.4009C41.6936 30.0173 41.9091 29.497 41.9091 28.9545V8.5C41.9091 7.95751 41.6936 7.43724 41.31 7.05365C40.9264 6.67005 40.4061 6.45455 39.8636 6.45455V6.45455Z" stroke="#FAFAFA" stroke-miterlimit="10" stroke-linecap="round" stroke-linejoin="round"/>
<path fill-rule="evenodd" clip-rule="evenodd" d="M30.9991 17.3636C30.9991 22.6354 26.7255 26.909 21.4537 26.909C16.1818 26.909 11.9082 22.6354 11.9082 17.3636C11.9082 12.0918 16.1818 7.81812 21.4537 7.81812C26.7255 7.81812 30.9991 12.0918 30.9991 17.3636ZM22.1364 11.9848L22.1364 16.5302H26.6818C26.8827 16.5302 27.0754 16.6101 27.2175 16.7521C27.3596 16.8942 27.4394 17.0869 27.4394 17.2878C27.4394 17.4887 27.3596 17.6814 27.2175 17.8235C27.0754 17.9656 26.8827 18.0454 26.6818 18.0454H22.1364L22.1364 22.5908C22.1364 22.7918 22.0565 22.9845 21.9145 23.1265C21.7724 23.2686 21.5797 23.3484 21.3788 23.3484C21.1779 23.3484 20.9852 23.2686 20.8431 23.1265C20.701 22.9845 20.6212 22.7918 20.6212 22.5908L20.6212 18.0454H16.0758C15.8748 18.0454 15.6821 17.9656 15.5401 17.8235C15.398 17.6814 15.3182 17.4887 15.3182 17.2878C15.3182 17.0869 15.398 16.8942 15.5401 16.7521C15.6821 16.6101 15.8748 16.5302 16.0758 16.5302H20.6212L20.6212 11.9848C20.6212 11.7839 20.701 11.5912 20.8431 11.4491C20.9852 11.307 21.1779 11.2272 21.3788 11.2272C21.5797 11.2272 21.7724 11.307 21.9145 11.4491C22.0565 11.5912 22.1364 11.7839 22.1364 11.9848Z" fill="#FAFAFA"/>
</svg>
